<svg width="42" height="42" viewBox="0 0 42 42" fill="none" xmlns="http://www.w3.org/2000/svg">
<rect width="42" height="42" rx="21" fill="#1E293B"/>
<path d="M10.776 29V11.96H18C18.784 11.96 19.504 12.12 20.16 12.44C20.816 12.76 21.384 13.192 21.864 13.736C22.36 14.28 22.744 14.888 23.016 15.56C23.288 16.232 23.424 16.92 23.424 17.624C23.424 18.584 23.2 19.496 22.752 20.36C22.304 21.224 21.688 21.928 20.904 22.472C20.12 23.016 19.192 23.288 18.12 23.288H14.088V29H10.776ZM14.088 20.384H17.928C18.328 20.384 18.688 20.272 19.008 20.048C19.328 19.824 19.584 19.504 19.776 19.088C19.968 18.656 20.064 18.168 20.064 17.624C20.064 17.032 19.952 16.528 19.728 16.112C19.52 15.696 19.24 15.384 18.888 15.176C18.552 14.968 18.184 14.864 17.784 14.864H14.088V20.384ZM32.9051 19.208C31.9291 19.208 31.0571 19.4 30.2891 19.784C29.5211 20.152 28.9691 20.688 28.6331 21.392V29H25.4171V16.424H28.3691V19.112C28.8171 18.248 29.3851 17.568 30.0731 17.072C30.7611 16.576 31.4891 16.304 32.2571 16.256C32.4331 16.256 32.5691 16.256 32.6651 16.256C32.7611 16.256 32.8411 16.264 32.9051 16.28V19.208Z" fill="white"/>
<path d="M10.776 29H9.776V30H10.776V29ZM10.776 11.96V10.96H9.776V11.96H10.776ZM20.16 12.44L20.5984 11.5412L20.5984 11.5412L20.16 12.44ZM21.864 13.736L21.1142 14.3976L21.1196 14.4037L21.125 14.4098L21.864 13.736ZM23.016 15.56L23.9429 15.1848L23.9429 15.1848L23.016 15.56ZM22.752 20.36L23.6398 20.8203L23.6398 20.8203L22.752 20.36ZM14.088 23.288V22.288H13.088V23.288H14.088ZM14.088 29V30H15.088V29H14.088ZM14.088 20.384H13.088V21.384H14.088V20.384ZM19.008 20.048L19.5815 20.8672L19.5815 20.8672L19.008 20.048ZM19.776 19.088L20.684 19.5071L20.6869 19.5006L20.6898 19.4941L19.776 19.088ZM19.728 16.112L18.8336 16.5592L18.8403 16.5728L18.8475 16.5861L19.728 16.112ZM18.888 15.176L18.3616 16.0263L18.3704 16.0317L18.3793 16.0369L18.888 15.176ZM14.088 14.864V13.864H13.088V14.864H14.088ZM11.776 29V11.96H9.776V29H11.776ZM10.776 12.96H18V10.96H10.776V12.96ZM18 12.96C18.6436 12.96 19.2121 13.0902 19.7216 13.3388L20.5984 11.5412C19.7959 11.1498 18.9244 10.96 18 10.96V12.96ZM19.7216 13.3388C20.2599 13.6014 20.7219 13.953 21.1142 14.3976L22.6138 13.0744C22.0461 12.431 21.3721 11.9186 20.5984 11.5412L19.7216 13.3388ZM21.125 14.4098C21.5424 14.8675 21.8622 15.3748 22.0891 15.9352L23.9429 15.1848C23.6258 14.4012 23.1776 13.6925 22.603 13.0622L21.125 14.4098ZM22.0891 15.9352C22.3143 16.4916 22.424 17.0524 22.424 17.624H24.424C24.424 16.7876 24.2617 15.9724 23.9429 15.1848L22.0891 15.9352ZM22.424 17.624C22.424 18.4215 22.2396 19.1759 21.8642 19.8997L23.6398 20.8203C24.1604 19.8161 24.424 18.7465 24.424 17.624H22.424ZM21.8642 19.8997C21.4896 20.6222 20.9815 21.2011 20.3339 21.6504L21.4741 23.2936C22.3945 22.6549 23.1184 21.8258 23.6398 20.8203L21.8642 19.8997ZM20.3339 21.6504C19.7376 22.0642 19.0144 22.288 18.12 22.288V24.288C19.3696 24.288 20.5024 23.9678 21.4741 23.2936L20.3339 21.6504ZM18.12 22.288H14.088V24.288H18.12V22.288ZM13.088 23.288V29H15.088V23.288H13.088ZM14.088 28H10.776V30H14.088V28ZM14.088 21.384H17.928V19.384H14.088V21.384ZM17.928 21.384C18.5279 21.384 19.0891 21.2119 19.5815 20.8672L18.4345 19.2288C18.2869 19.3321 18.1281 19.384 17.928 19.384V21.384ZM19.5815 20.8672C20.0698 20.5254 20.4308 20.0557 20.684 19.5071L18.868 18.6689C18.7372 18.9523 18.5862 19.1226 18.4345 19.2288L19.5815 20.8672ZM20.6898 19.4941C20.9466 18.9164 21.064 18.2869 21.064 17.624H19.064C19.064 18.0491 18.9894 18.3956 18.8622 18.6819L20.6898 19.4941ZM21.064 17.624C21.064 16.9076 20.9283 16.2319 20.6085 15.6379L18.8475 16.5861C18.9757 16.8241 19.064 17.1564 19.064 17.624H21.064ZM20.6224 15.6648C20.3405 15.101 19.9364 14.634 19.3967 14.3151L18.3793 16.0369C18.5436 16.134 18.6995 16.291 18.8336 16.5592L20.6224 15.6648ZM19.4144 14.3257C18.9182 14.0186 18.3676 13.864 17.784 13.864V15.864C18.0004 15.864 18.1858 15.9174 18.3616 16.0263L19.4144 14.3257ZM17.784 13.864H14.088V15.864H17.784V13.864ZM13.088 14.864V20.384H15.088V14.864H13.088ZM32.9051 19.208V20.208H33.9051V19.208H32.9051ZM30.2891 19.784L30.7212 20.6858L30.7288 20.6822L30.7363 20.6784L30.2891 19.784ZM28.6331 21.392L27.7306 20.9613L27.6331 21.1656V21.392H28.6331ZM28.6331 29V30H29.6331V29H28.6331ZM25.4171 29H24.4171V30H25.4171V29ZM25.4171 16.424V15.424H24.4171V16.424H25.4171ZM28.3691 16.424H29.3691V15.424H28.3691V16.424ZM28.3691 19.112H27.3691L29.2569 19.5723L28.3691 19.112ZM30.0731 17.072L30.6579 17.8832L30.6579 17.8832L30.0731 17.072ZM32.2571 16.256V15.256H32.2259L32.1947 15.2579L32.2571 16.256ZM32.9051 16.28H33.9051V15.4992L33.1477 15.3099L32.9051 16.28ZM32.9051 18.208C31.7952 18.208 30.7667 18.4272 29.8419 18.8896L30.7363 20.6784C31.3476 20.3728 32.063 20.208 32.9051 20.208V18.208ZM29.857 18.8822C28.9032 19.3392 28.1742 20.0318 27.7306 20.9613L29.5356 21.8227C29.764 21.3442 30.1391 20.9648 30.7212 20.6858L29.857 18.8822ZM27.6331 21.392V29H29.6331V21.392H27.6331ZM28.6331 28H25.4171V30H28.6331V28ZM26.4171 29V16.424H24.4171V29H26.4171ZM25.4171 17.424H28.3691V15.424H25.4171V17.424ZM27.3691 16.424V19.112H29.3691V16.424H27.3691ZM29.2569 19.5723C29.6434 18.8268 30.1146 18.2749 30.6579 17.8832L29.4883 16.2608C28.6557 16.8611 27.9908 17.6692 27.4814 18.6517L29.2569 19.5723ZM30.6579 17.8832C31.2091 17.4858 31.7588 17.2891 32.3195 17.2541L32.1947 15.2579C31.2195 15.3189 30.3132 15.6662 29.4883 16.2608L30.6579 17.8832ZM32.2571 17.256C32.2575 17.256 32.2578 17.256 32.2582 17.256C32.2585 17.256 32.2588 17.256 32.2592 17.256C32.2595 17.256 32.2599 17.256 32.2602 17.256C32.2606 17.256 32.2609 17.256 32.2612 17.256C32.2616 17.256 32.2619 17.256 32.2623 17.256C32.2626 17.256 32.263 17.256 32.2633 17.256C32.2636 17.256 32.264 17.256 32.2643 17.256C32.2647 17.256 32.265 17.256 32.2653 17.256C32.2657 17.256 32.266 17.256 32.2664 17.256C32.2667 17.256 32.2671 17.256 32.2674 17.256C32.2677 17.256 32.2681 17.256 32.2684 17.256C32.2688 17.256 32.2691 17.256 32.2694 17.256C32.2698 17.256 32.2701 17.256 32.2705 17.256C32.2708 17.256 32.2711 17.256 32.2715 17.256C32.2718 17.256 32.2722 17.256 32.2725 17.256C32.2728 17.256 32.2732 17.256 32.2735 17.256C32.2738 17.256 32.2742 17.256 32.2745 17.256C32.2749 17.256 32.2752 17.256 32.2755 17.256C32.2759 17.256 32.2762 17.256 32.2766 17.256C32.2769 17.256 32.2772 17.256 32.2776 17.256C32.2779 17.256 32.2782 17.256 32.2786 17.256C32.2789 17.256 32.2793 17.256 32.2796 17.256C32.2799 17.256 32.2803 17.256 32.2806 17.256C32.2809 17.256 32.2813 17.256 32.2816 17.256C32.2819 17.256 32.2823 17.256 32.2826 17.256C32.283 17.256 32.2833 17.256 32.2836 17.256C32.284 17.256 32.2843 17.256 32.2846 17.256C32.285 17.256 32.2853 17.256 32.2856 17.256C32.286 17.256 32.2863 17.256 32.2866 17.256C32.287 17.256 32.2873 17.256 32.2877 17.256C32.288 17.256 32.2883 17.256 32.2887 17.256C32.289 17.256 32.2893 17.256 32.2897 17.256C32.29 17.256 32.2903 17.256 32.2907 17.256C32.291 17.256 32.2913 17.256 32.2917 17.256C32.292 17.256 32.2923 17.256 32.2927 17.256C32.293 17.256 32.2933 17.256 32.2937 17.256C32.294 17.256 32.2943 17.256 32.2947 17.256C32.295 17.256 32.2953 17.256 32.2957 17.256C32.296 17.256 32.2963 17.256 32.2966 17.256C32.297 17.256 32.2973 17.256 32.2976 17.256C32.298 17.256 32.2983 17.256 32.2986 17.256C32.299 17.256 32.2993 17.256 32.2996 17.256C32.3 17.256 32.3003 17.256 32.3006 17.256C32.301 17.256 32.3013 17.256 32.3016 17.256C32.3019 17.256 32.3023 17.256 32.3026 17.256C32.3029 17.256 32.3033 17.256 32.3036 17.256C32.3039 17.256 32.3043 17.256 32.3046 17.256C32.3049 17.256 32.3052 17.256 32.3056 17.256C32.3059 17.256 32.3062 17.256 32.3066 17.256C32.3069 17.256 32.3072 17.256 32.3075 17.256C32.3079 17.256 32.3082 17.256 32.3085 17.256C32.3089 17.256 32.3092 17.256 32.3095 17.256C32.3098 17.256 32.3102 17.256 32.3105 17.256C32.3108 17.256 32.3112 17.256 32.3115 17.256C32.3118 17.256 32.3121 17.256 32.3125 17.256C32.3128 17.256 32.3131 17.256 32.3134 17.256C32.3138 17.256 32.3141 17.256 32.3144 17.256C32.3147 17.256 32.3151 17.256 32.3154 17.256C32.3157 17.256 32.316 17.256 32.3164 17.256C32.3167 17.256 32.317 17.256 32.3174 17.256C32.3177 17.256 32.318 17.256 32.3183 17.256C32.3187 17.256 32.319 17.256 32.3193 17.256C32.3196 17.256 32.32 17.256 32.3203 17.256C32.3206 17.256 32.3209 17.256 32.3213 17.256C32.3216 17.256 32.3219 17.256 32.3222 17.256C32.3225 17.256 32.3229 17.256 32.3232 17.256C32.3235 17.256 32.3238 17.256 32.3242 17.256C32.3245 17.256 32.3248 17.256 32.3251 17.256C32.3255 17.256 32.3258 17.256 32.3261 17.256C32.3264 17.256 32.3267 17.256 32.3271 17.256C32.3274 17.256 32.3277 17.256 32.328 17.256C32.3284 17.256 32.3287 17.256 32.329 17.256C32.3293 17.256 32.3296 17.256 32.33 17.256C32.3303 17.256 32.3306 17.256 32.3309 17.256C32.3313 17.256 32.3316 17.256 32.3319 17.256C32.3322 17.256 32.3325 17.256 32.3329 17.256C32.3332 17.256 32.3335 17.256 32.3338 17.256C32.3341 17.256 32.3345 17.256 32.3348 17.256C32.3351 17.256 32.3354 17.256 32.3357 17.256C32.3361 17.256 32.3364 17.256 32.3367 17.256C32.337 17.256 32.3373 17.256 32.3377 17.256C32.338 17.256 32.3383 17.256 32.3386 17.256C32.3389 17.256 32.3392 17.256 32.3396 17.256C32.3399 17.256 32.3402 17.256 32.3405 17.256C32.3408 17.256 32.3412 17.256 32.3415 17.256C32.3418 17.256 32.3421 17.256 32.3424 17.256C32.3427 17.256 32.3431 17.256 32.3434 17.256C32.3437 17.256 32.344 17.256 32.3443 17.256C32.3446 17.256 32.345 17.256 32.3453 17.256C32.3456 17.256 32.3459 17.256 32.3462 17.256C32.3465 17.256 32.3469 17.256 32.3472 17.256C32.3475 17.256 32.3478 17.256 32.3481 17.256C32.3484 17.256 32.3488 17.256 32.3491 17.256C32.3494 17.256 32.3497 17.256 32.35 17.256C32.3503 17.256 32.3506 17.256 32.351 17.256C32.3513 17.256 32.3516 17.256 32.3519 17.256C32.3522 17.256 32.3525 17.256 32.3528 17.256C32.3532 17.256 32.3535 17.256 32.3538 17.256C32.3541 17.256 32.3544 17.256 32.3547 17.256C32.355 17.256 32.3554 17.256 32.3557 17.256C32.356 17.256 32.3563 17.256 32.3566 17.256C32.3569 17.256 32.3572 17.256 32.3576 17.256C32.3579 17.256 32.3582 17.256 32.3585 17.256C32.3588 17.256 32.3591 17.256 32.3594 17.256C32.3597 17.256 32.36 17.256 32.3604 17.256C32.3607 17.256 32.361 17.256 32.3613 17.256C32.3616 17.256 32.3619 17.256 32.3622 17.256C32.3625 17.256 32.3629 17.256 32.3632 17.256C32.3635 17.256 32.3638 17.256 32.3641 17.256C32.3644 17.256 32.3647 17.256 32.365 17.256C32.3653 17.256 32.3656 17.256 32.366 17.256C32.3663 17.256 32.3666 17.256 32.3669 17.256C32.3672 17.256 32.3675 17.256 32.3678 17.256C32.3681 17.256 32.3684 17.256 32.3687 17.256C32.369 17.256 32.3694 17.256 32.3697 17.256C32.37 17.256 32.3703 17.256 32.3706 17.256C32.3709 17.256 32.3712 17.256 32.3715 17.256C32.3718 17.256 32.3721 17.256 32.3724 17.256C32.3727 17.256 32.3731 17.256 32.3734 17.256C32.3737 17.256 32.374 17.256 32.3743 17.256C32.3746 17.256 32.3749 17.256 32.3752 17.256C32.3755 17.256 32.3758 17.256 32.3761 17.256C32.3764 17.256 32.3767 17.256 32.377 17.256C32.3773 17.256 32.3777 17.256 32.378 17.256C32.3783 17.256 32.3786 17.256 32.3789 17.256C32.3792 17.256 32.3795 17.256 32.3798 17.256C32.3801 17.256 32.3804 17.256 32.3807 17.256C32.381 17.256 32.3813 17.256 32.3816 17.256C32.3819 17.256 32.3822 17.256 32.3825 17.256C32.3828 17.256 32.3831 17.256 32.3835 17.256C32.3838 17.256 32.3841 17.256 32.3844 17.256C32.3847 17.256 32.385 17.256 32.3853 17.256C32.3856 17.256 32.3859 17.256 32.3862 17.256C32.3865 17.256 32.3868 17.256 32.3871 17.256C32.3874 17.256 32.3877 17.256 32.388 17.256C32.3883 17.256 32.3886 17.256 32.3889 17.256C32.3892 17.256 32.3895 17.256 32.3898 17.256C32.3901 17.256 32.3904 17.256 32.3907 17.256C32.391 17.256 32.3913 17.256 32.3916 17.256C32.3919 17.256 32.3922 17.256 32.3925 17.256C32.3928 17.256 32.3931 17.256 32.3934 17.256C32.3937 17.256 32.394 17.256 32.3943 17.256C32.3946 17.256 32.3949 17.256 32.3952 17.256C32.3955 17.256 32.3958 17.256 32.3961 17.256C32.3964 17.256 32.3967 17.256 32.397 17.256C32.3973 17.256 32.3976 17.256 32.3979 17.256C32.3982 17.256 32.3985 17.256 32.3988 17.256C32.3991 17.256 32.3994 17.256 32.3997 17.256C32.4 17.256 32.4003 17.256 32.4006 17.256C32.4009 17.256 32.4012 17.256 32.4015 17.256C32.4018 17.256 32.4021 17.256 32.4024 17.256C32.4027 17.256 32.403 17.256 32.4033 17.256C32.4036 17.256 32.4039 17.256 32.4042 17.256C32.4045 17.256 32.4048 17.256 32.4051 17.256C32.4054 17.256 32.4057 17.256 32.406 17.256C32.4063 17.256 32.4066 17.256 32.4069 17.256C32.4072 17.256 32.4075 17.256 32.4077 17.256C32.408 17.256 32.4083 17.256 32.4086 17.256C32.4089 17.256 32.4092 17.256 32.4095 17.256C32.4098 17.256 32.4101 17.256 32.4104 17.256C32.4107 17.256 32.411 17.256 32.4113 17.256C32.4116 17.256 32.4119 17.256 32.4122 17.256C32.4125 17.256 32.4128 17.256 32.4131 17.256C32.4134 17.256 32.4136 17.256 32.4139 17.256C32.4142 17.256 32.4145 17.256 32.4148 17.256C32.4151 17.256 32.4154 17.256 32.4157 17.256C32.416 17.256 32.4163 17.256 32.4166 17.256C32.4169 17.256 32.4172 17.256 32.4175 17.256C32.4177 17.256 32.418 17.256 32.4183 17.256C32.4186 17.256 32.4189 17.256 32.4192 17.256C32.4195 17.256 32.4198 17.256 32.4201 17.256C32.4204 17.256 32.4207 17.256 32.421 17.256C32.4212 17.256 32.4215 17.256 32.4218 17.256C32.4221 17.256 32.4224 17.256 32.4227 17.256C32.423 17.256 32.4233 17.256 32.4236 17.256C32.4239 17.256 32.4242 17.256 32.4244 17.256C32.4247 17.256 32.425 17.256 32.4253 17.256C32.4256 17.256 32.4259 17.256 32.4262 17.256C32.4265 17.256 32.4268 17.256 32.4271 17.256C32.4273 17.256 32.4276 17.256 32.4279 17.256C32.4282 17.256 32.4285 17.256 32.4288 17.256C32.4291 17.256 32.4294 17.256 32.4296 17.256C32.4299 17.256 32.4302 17.256 32.4305 17.256C32.4308 17.256 32.4311 17.256 32.4314 17.256C32.4317 17.256 32.432 17.256 32.4322 17.256C32.4325 17.256 32.4328 17.256 32.4331 17.256C32.4334 17.256 32.4337 17.256 32.434 17.256C32.4342 17.256 32.4345 17.256 32.4348 17.256C32.4351 17.256 32.4354 17.256 32.4357 17.256C32.436 17.256 32.4363 17.256 32.4365 17.256C32.4368 17.256 32.4371 17.256 32.4374 17.256C32.4377 17.256 32.438 17.256 32.4383 17.256C32.4385 17.256 32.4388 17.256 32.4391 17.256C32.4394 17.256 32.4397 17.256 32.44 17.256C32.4402 17.256 32.4405 17.256 32.4408 17.256C32.4411 17.256 32.4414 17.256 32.4417 17.256C32.4419 17.256 32.4422 17.256 32.4425 17.256C32.4428 17.256 32.4431 17.256 32.4434 17.256C32.4437 17.256 32.4439 17.256 32.4442 17.256C32.4445 17.256 32.4448 17.256 32.4451 17.256C32.4453 17.256 32.4456 17.256 32.4459 17.256C32.4462 17.256 32.4465 17.256 32.4468 17.256C32.447 17.256 32.4473 17.256 32.4476 17.256C32.4479 17.256 32.4482 17.256 32.4485 17.256C32.4487 17.256 32.449 17.256 32.4493 17.256C32.4496 17.256 32.4499 17.256 32.4501 17.256C32.4504 17.256 32.4507 17.256 32.451 17.256C32.4513 17.256 32.4515 17.256 32.4518 17.256C32.4521 17.256 32.4524 17.256 32.4527 17.256C32.4529 17.256 32.4532 17.256 32.4535 17.256C32.4538 17.256 32.4541 17.256 32.4543 17.256C32.4546 17.256 32.4549 17.256 32.4552 17.256C32.4555 17.256 32.4557 17.256 32.456 17.256C32.4563 17.256 32.4566 17.256 32.4568 17.256C32.4571 17.256 32.4574 17.256 32.4577 17.256C32.458 17.256 32.4582 17.256 32.4585 17.256C32.4588 17.256 32.4591 17.256 32.4594 17.256C32.4596 17.256 32.4599 17.256 32.4602 17.256C32.4605 17.256 32.4607 17.256 32.461 17.256C32.4613 17.256 32.4616 17.256 32.4618 17.256C32.4621 17.256 32.4624 17.256 32.4627 17.256C32.463 17.256 32.4632 17.256 32.4635 17.256C32.4638 17.256 32.4641 17.256 32.4643 17.256C32.4646 17.256 32.4649 17.256 32.4652 17.256C32.4654 17.256 32.4657 17.256 32.466 17.256C32.4663 17.256 32.4665 17.256 32.4668 17.256C32.4671 17.256 32.4674 17.256 32.4676 17.256C32.4679 17.256 32.4682 17.256 32.4685 17.256C32.4687 17.256 32.469 17.256 32.4693 17.256C32.4695 17.256 32.4698 17.256 32.4701 17.256C32.4704 17.256 32.4706 17.256 32.4709 17.256C32.4712 17.256 32.4715 17.256 32.4717 17.256C32.472 17.256 32.4723 17.256 32.4726 17.256C32.4728 17.256 32.4731 17.256 32.4734 17.256C32.4736 17.256 32.4739 17.256 32.4742 17.256C32.4745 17.256 32.4747 17.256 32.475 17.256C32.4753 17.256 32.4755 17.256 32.4758 17.256C32.4761 17.256 32.4764 17.256 32.4766 17.256C32.4769 17.256 32.4772 17.256 32.4774 17.256C32.4777 17.256 32.478 17.256 32.4783 17.256C32.4785 17.256 32.4788 17.256 32.4791 17.256C32.4793 17.256 32.4796 17.256 32.4799 17.256C32.4801 17.256 32.4804 17.256 32.4807 17.256C32.481 17.256 32.4812 17.256 32.4815 17.256C32.4818 17.256 32.482 17.256 32.4823 17.256C32.4826 17.256 32.4828 17.256 32.4831 17.256C32.4834 17.256 32.4836 17.256 32.4839 17.256C32.4842 17.256 32.4845 17.256 32.4847 17.256C32.485 17.256 32.4853 17.256 32.4855 17.256C32.4858 17.256 32.4861 17.256 32.4863 17.256C32.4866 17.256 32.4869 17.256 32.4871 17.256C32.4874 17.256 32.4877 17.256 32.4879 17.256C32.4882 17.256 32.4885 17.256 32.4887 17.256C32.489 17.256 32.4893 17.256 32.4895 17.256C32.4898 17.256 32.4901 17.256 32.4903 17.256C32.4906 17.256 32.4909 17.256 32.4911 17.256C32.4914 17.256 32.4917 17.256 32.4919 17.256C32.4922 17.256 32.4925 17.256 32.4927 17.256C32.493 17.256 32.4932 17.256 32.4935 17.256C32.4938 17.256 32.494 17.256 32.4943 17.256C32.4946 17.256 32.4948 17.256 32.4951 17.256C32.4954 17.256 32.4956 17.256 32.4959 17.256C32.4962 17.256 32.4964 17.256 32.4967 17.256C32.4969 17.256 32.4972 17.256 32.4975 17.256C32.4977 17.256 32.498 17.256 32.4983 17.256C32.4985 17.256 32.4988 17.256 32.499 17.256C32.4993 17.256 32.4996 17.256 32.4998 17.256C32.5001 17.256 32.5004 17.256 32.5006 17.256C32.5009 17.256 32.5011 17.256 32.5014 17.256C32.5017 17.256 32.5019 17.256 32.5022 17.256C32.5025 17.256 32.5027 17.256 32.503 17.256C32.5032 17.256 32.5035 17.256 32.5038 17.256C32.504 17.256 32.5043 17.256 32.5045 17.256C32.5048 17.256 32.5051 17.256 32.5053 17.256C32.5056 17.256 32.5058 17.256 32.5061 17.256C32.5064 17.256 32.5066 17.256 32.5069 17.256C32.5071 17.256 32.5074 17.256 32.5077 17.256C32.5079 17.256 32.5082 17.256 32.5084 17.256C32.5087 17.256 32.509 17.256 32.5092 17.256C32.5095 17.256 32.5097 17.256 32.51 17.256C32.5102 17.256 32.5105 17.256 32.5108 17.256C32.511 17.256 32.5113 17.256 32.5115 17.256C32.5118 17.256 32.512 17.256 32.5123 17.256C32.5126 17.256 32.5128 17.256 32.5131 17.256C32.5133 17.256 32.5136 17.256 32.5138 17.256C32.5141 17.256 32.5144 17.256 32.5146 17.256C32.5149 17.256 32.5151 17.256 32.5154 17.256C32.5156 17.256 32.5159 17.256 32.5162 17.256C32.5164 17.256 32.5167 17.256 32.5169 17.256C32.5172 17.256 32.5174 17.256 32.5177 17.256C32.5179 17.256 32.5182 17.256 32.5185 17.256C32.5187 17.256 32.519 17.256 32.5192 17.256C32.5195 17.256 32.5197 17.256 32.52 17.256C32.5202 17.256 32.5205 17.256 32.5207 17.256C32.521 17.256 32.5213 17.256 32.5215 17.256C32.5218 17.256 32.522 17.256 32.5223 17.256C32.5225 17.256 32.5228 17.256 32.523 17.256C32.5233 17.256 32.5235 17.256 32.5238 17.256C32.524 17.256 32.5243 17.256 32.5245 17.256C32.5248 17.256 32.525 17.256 32.5253 17.256C32.5256 17.256 32.5258 17.256 32.5261 17.256C32.5263 17.256 32.5266 17.256 32.5268 17.256C32.5271 17.256 32.5273 17.256 32.5276 17.256C32.5278 17.256 32.5281 17.256 32.5283 17.256C32.5286 17.256 32.5288 17.256 32.5291 17.256C32.5293 17.256 32.5296 17.256 32.5298 17.256C32.5301 17.256 32.5303 17.256 32.5306 17.256C32.5308 17.256 32.5311 17.256 32.5313 17.256C32.5316 17.256 32.5318 17.256 32.5321 17.256C32.5323 17.256 32.5326 17.256 32.5328 17.256C32.5331 17.256 32.5333 17.256 32.5336 17.256C32.5338 17.256 32.5341 17.256 32.5343 17.256C32.5346 17.256 32.5348 17.256 32.5351 17.256C32.5353 17.256 32.5356 17.256 32.5358 17.256C32.5361 17.256 32.5363 17.256 32.5365 17.256C32.5368 17.256 32.537 17.256 32.5373 17.256C32.5375 17.256 32.5378 17.256 32.538 17.256C32.5383 17.256 32.5385 17.256 32.5388 17.256C32.539 17.256 32.5393 17.256 32.5395 17.256C32.5398 17.256 32.54 17.256 32.5403 17.256C32.5405 17.256 32.5407 17.256 32.541 17.256C32.5412 17.256 32.5415 17.256 32.5417 17.256C32.542 17.256 32.5422 17.256 32.5425 17.256C32.5427 17.256 32.543 17.256 32.5432 17.256C32.5434 17.256 32.5437 17.256 32.5439 17.256C32.5442 17.256 32.5444 17.256 32.5447 17.256C32.5449 17.256 32.5452 17.256 32.5454 17.256C32.5456 17.256 32.5459 17.256 32.5461 17.256C32.5464 17.256 32.5466 17.256 32.5469 17.256C32.5471 17.256 32.5473 17.256 32.5476 17.256C32.5478 17.256 32.5481 17.256 32.5483 17.256C32.5486 17.256 32.5488 17.256 32.549 17.256C32.5493 17.256 32.5495 17.256 32.5498 17.256C32.55 17.256 32.5503 17.256 32.5505 17.256C32.5507 17.256 32.551 17.256 32.5512 17.256C32.5515 17.256 32.5517 17.256 32.5519 17.256C32.5522 17.256 32.5524 17.256 32.5527 17.256C32.5529 17.256 32.5532 17.256 32.5534 17.256C32.5536 17.256 32.5539 17.256 32.5541 17.256C32.5544 17.256 32.5546 17.256 32.5548 17.256C32.5551 17.256 32.5553 17.256 32.5556 17.256C32.5558 17.256 32.556 17.256 32.5563 17.256C32.5565 17.256 32.5567 17.256 32.557 17.256C32.5572 17.256 32.5575 17.256 32.5577 17.256C32.5579 17.256 32.5582 17.256 32.5584 17.256C32.5587 17.256 32.5589 17.256 32.5591 17.256C32.5594 17.256 32.5596 17.256 32.5599 17.256C32.5601 17.256 32.5603 17.256 32.5606 17.256C32.5608 17.256 32.561 17.256 32.5613 17.256C32.5615 17.256 32.5617 17.256 32.562 17.256C32.5622 17.256 32.5625 17.256 32.5627 17.256C32.5629 17.256 32.5632 17.256 32.5634 17.256C32.5636 17.256 32.5639 17.256 32.5641 17.256C32.5644 17.256 32.5646 17.256 32.5648 17.256C32.5651 17.256 32.5653 17.256 32.5655 17.256C32.5658 17.256 32.566 17.256 32.5662 17.256C32.5665 17.256 32.5667 17.256 32.5669 17.256C32.5672 17.256 32.5674 17.256 32.5676 17.256C32.5679 17.256 32.5681 17.256 32.5683 17.256C32.5686 17.256 32.5688 17.256 32.569 17.256C32.5693 17.256 32.5695 17.256 32.5698 17.256C32.57 17.256 32.5702 17.256 32.5705 17.256C32.5707 17.256 32.5709 17.256 32.5712 17.256C32.5714 17.256 32.5716 17.256 32.5718 17.256C32.5721 17.256 32.5723 17.256 32.5725 17.256C32.5728 17.256 32.573 17.256 32.5732 17.256C32.5735 17.256 32.5737 17.256 32.5739 17.256C32.5742 17.256 32.5744 17.256 32.5746 17.256C32.5749 17.256 32.5751 17.256 32.5753 17.256C32.5756 17.256 32.5758 17.256 32.576 17.256C32.5763 17.256 32.5765 17.256 32.5767 17.256C32.5769 17.256 32.5772 17.256 32.5774 17.256C32.5776 17.256 32.5779 17.256 32.5781 17.256C32.5783 17.256 32.5786 17.256 32.5788 17.256C32.579 17.256 32.5792 17.256 32.5795 17.256C32.5797 17.256 32.5799 17.256 32.5802 17.256C32.5804 17.256 32.5806 17.256 32.5808 17.256C32.5811 17.256 32.5813 17.256 32.5815 17.256C32.5818 17.256 32.582 17.256 32.5822 17.256C32.5824 17.256 32.5827 17.256 32.5829 17.256C32.5831 17.256 32.5834 17.256 32.5836 17.256C32.5838 17.256 32.584 17.256 32.5843 17.256C32.5845 17.256 32.5847 17.256 32.5849 17.256C32.5852 17.256 32.5854 17.256 32.5856 17.256C32.5859 17.256 32.5861 17.256 32.5863 17.256C32.5865 17.256 32.5868 17.256 32.587 17.256C32.5872 17.256 32.5874 17.256 32.5877 17.256C32.5879 17.256 32.5881 17.256 32.5883 17.256C32.5886 17.256 32.5888 17.256 32.589 17.256C32.5892 17.256 32.5895 17.256 32.5897 17.256C32.5899 17.256 32.5901 17.256 32.5904 17.256C32.5906 17.256 32.5908 17.256 32.591 17.256C32.5913 17.256 32.5915 17.256 32.5917 17.256C32.5919 17.256 32.5922 17.256 32.5924 17.256C32.5926 17.256 32.5928 17.256 32.593 17.256C32.5933 17.256 32.5935 17.256 32.5937 17.256C32.5939 17.256 32.5942 17.256 32.5944 17.256C32.5946 17.256 32.5948 17.256 32.5951 17.256C32.5953 17.256 32.5955 17.256 32.5957 17.256C32.5959 17.256 32.5962 17.256 32.5964 17.256C32.5966 17.256 32.5968 17.256 32.597 17.256C32.5973 17.256 32.5975 17.256 32.5977 17.256C32.5979 17.256 32.5982 17.256 32.5984 17.256C32.5986 17.256 32.5988 17.256 32.599 17.256C32.5993 17.256 32.5995 17.256 32.5997 17.256C32.5999 17.256 32.6001 17.256 32.6004 17.256C32.6006 17.256 32.6008 17.256 32.601 17.256C32.6012 17.256 32.6015 17.256 32.6017 17.256C32.6019 17.256 32.6021 17.256 32.6023 17.256C32.6026 17.256 32.6028 17.256 32.603 17.256C32.6032 17.256 32.6034 17.256 32.6036 17.256C32.6039 17.256 32.6041 17.256 32.6043 17.256C32.6045 17.256 32.6047 17.256 32.605 17.256C32.6052 17.256 32.6054 17.256 32.6056 17.256C32.6058 17.256 32.606 17.256 32.6063 17.256C32.6065 17.256 32.6067 17.256 32.6069 17.256C32.6071 17.256 32.6073 17.256 32.6076 17.256C32.6078 17.256 32.608 17.256 32.6082 17.256C32.6084 17.256 32.6086 17.256 32.6089 17.256C32.6091 17.256 32.6093 17.256 32.6095 17.256C32.6097 17.256 32.6099 17.256 32.6101 17.256C32.6104 17.256 32.6106 17.256 32.6108 17.256C32.611 17.256 32.6112 17.256 32.6114 17.256C32.6117 17.256 32.6119 17.256 32.6121 17.256C32.6123 17.256 32.6125 17.256 32.6127 17.256C32.6129 17.256 32.6132 17.256 32.6134 17.256C32.6136 17.256 32.6138 17.256 32.614 17.256C32.6142 17.256 32.6144 17.256 32.6146 17.256C32.6149 17.256 32.6151 17.256 32.6153 17.256C32.6155 17.256 32.6157 17.256 32.6159 17.256C32.6161 17.256 32.6163 17.256 32.6166 17.256C32.6168 17.256 32.617 17.256 32.6172 17.256C32.6174 17.256 32.6176 17.256 32.6178 17.256C32.618 17.256 32.6183 17.256 32.6185 17.256C32.6187 17.256 32.6189 17.256 32.6191 17.256C32.6193 17.256 32.6195 17.256 32.6197 17.256C32.6199 17.256 32.6202 17.256 32.6204 17.256C32.6206 17.256 32.6208 17.256 32.621 17.256C32.6212 17.256 32.6214 17.256 32.6216 17.256C32.6218 17.256 32.622 17.256 32.6223 17.256C32.6225 17.256 32.6227 17.256 32.6229 17.256C32.6231 17.256 32.6233 17.256 32.6235 17.256C32.6237 17.256 32.6239 17.256 32.6241 17.256C32.6243 17.256 32.6246 17.256 32.6248 17.256C32.625 17.256 32.6252 17.256 32.6254 17.256C32.6256 17.256 32.6258 17.256 32.626 17.256C32.6262 17.256 32.6264 17.256 32.6266 17.256C32.6268 17.256 32.627 17.256 32.6273 17.256C32.6275 17.256 32.6277 17.256 32.6279 17.256C32.6281 17.256 32.6283 17.256 32.6285 17.256C32.6287 17.256 32.6289 17.256 32.6291 17.256C32.6293 17.256 32.6295 17.256 32.6297 17.256C32.6299 17.256 32.6301 17.256 32.6303 17.256C32.6305 17.256 32.6308 17.256 32.631 17.256C32.6312 17.256 32.6314 17.256 32.6316 17.256C32.6318 17.256 32.632 17.256 32.6322 17.256C32.6324 17.256 32.6326 17.256 32.6328 17.256C32.633 17.256 32.6332 17.256 32.6334 17.256C32.6336 17.256 32.6338 17.256 32.634 17.256C32.6342 17.256 32.6344 17.256 32.6346 17.256C32.6348 17.256 32.635 17.256 32.6352 17.256C32.6355 17.256 32.6357 17.256 32.6359 17.256C32.6361 17.256 32.6363 17.256 32.6365 17.256C32.6367 17.256 32.6369 17.256 32.6371 17.256C32.6373 17.256 32.6375 17.256 32.6377 17.256C32.6379 17.256 32.6381 17.256 32.6383 17.256C32.6385 17.256 32.6387 17.256 32.6389 17.256C32.6391 17.256 32.6393 17.256 32.6395 17.256C32.6397 17.256 32.6399 17.256 32.6401 17.256C32.6403 17.256 32.6405 17.256 32.6407 17.256C32.6409 17.256 32.6411 17.256 32.6413 17.256C32.6415 17.256 32.6417 17.256 32.6419 17.256C32.6421 17.256 32.6423 17.256 32.6425 17.256C32.6427 17.256 32.6429 17.256 32.6431 17.256C32.6433 17.256 32.6435 17.256 32.6437 17.256C32.6439 17.256 32.6441 17.256 32.6443 17.256C32.6445 17.256 32.6447 17.256 32.6449 17.256C32.6451 17.256 32.6453 17.256 32.6455 17.256C32.6457 17.256 32.6459 17.256 32.6461 17.256C32.6463 17.256 32.6465 17.256 32.6467 17.256C32.6469 17.256 32.6471 17.256 32.6472 17.256C32.6474 17.256 32.6476 17.256 32.6478 17.256C32.648 17.256 32.6482 17.256 32.6484 17.256C32.6486 17.256 32.6488 17.256 32.649 17.256C32.6492 17.256 32.6494 17.256 32.6496 17.256C32.6498 17.256 32.65 17.256 32.6502 17.256C32.6504 17.256 32.6506 17.256 32.6508 17.256C32.651 17.256 32.6512 17.256 32.6514 17.256C32.6516 17.256 32.6518 17.256 32.6519 17.256C32.6521 17.256 32.6523 17.256 32.6525 17.256C32.6527 17.256 32.6529 17.256 32.6531 17.256C32.6533 17.256 32.6535 17.256 32.6537 17.256C32.6539 17.256 32.6541 17.256 32.6543 17.256C32.6545 17.256 32.6547 17.256 32.6549 17.256C32.655 17.256 32.6552 17.256 32.6554 17.256C32.6556 17.256 32.6558 17.256 32.656 17.256C32.6562 17.256 32.6564 17.256 32.6566 17.256C32.6568 17.256 32.657 17.256 32.6572 17.256C32.6574 17.256 32.6575 17.256 32.6577 17.256C32.6579 17.256 32.6581 17.256 32.6583 17.256C32.6585 17.256 32.6587 17.256 32.6589 17.256C32.6591 17.256 32.6593 17.256 32.6595 17.256C32.6596 17.256 32.6598 17.256 32.66 17.256C32.6602 17.256 32.6604 17.256 32.6606 17.256C32.6608 17.256 32.661 17.256 32.6612 17.256C32.6614 17.256 32.6615 17.256 32.6617 17.256C32.6619 17.256 32.6621 17.256 32.6623 17.256C32.6625 17.256 32.6627 17.256 32.6629 17.256C32.6631 17.256 32.6632 17.256 32.6634 17.256C32.6636 17.256 32.6638 17.256 32.664 17.256C32.6642 17.256 32.6644 17.256 32.6646 17.256C32.6647 17.256 32.6649 17.256 32.6651 17.256V15.256C32.6649 15.256 32.6647 15.256 32.6646 15.256C32.6644 15.256 32.6642 15.256 32.664 15.256C32.6638 15.256 32.6636 15.256 32.6634 15.256C32.6632 15.256 32.6631 15.256 32.6629 15.256C32.6627 15.256 32.6625 15.256 32.6623 15.256C32.6621 15.256 32.6619 15.256 32.6617 15.256C32.6615 15.256 32.6614 15.256 32.6612 15.256C32.661 15.256 32.6608 15.256 32.6606 15.256C32.6604 15.256 32.6602 15.256 32.66 15.256C32.6598 15.256 32.6596 15.256 32.6595 15.256C32.6593 15.256 32.6591 15.256 32.6589 15.256C32.6587 15.256 32.6585 15.256 32.6583 15.256C32.6581 15.256 32.6579 15.256 32.6577 15.256C32.6575 15.256 32.6574 15.256 32.6572 15.256C32.657 15.256 32.6568 15.256 32.6566 15.256C32.6564 15.256 32.6562 15.256 32.656 15.256C32.6558 15.256 32.6556 15.256 32.6554 15.256C32.6552 15.256 32.655 15.256 32.6549 15.256C32.6547 15.256 32.6545 15.256 32.6543 15.256C32.6541 15.256 32.6539 15.256 32.6537 15.256C32.6535 15.256 32.6533 15.256 32.6531 15.256C32.6529 15.256 32.6527 15.256 32.6525 15.256C32.6523 15.256 32.6521 15.256 32.6519 15.256C32.6518 15.256 32.6516 15.256 32.6514 15.256C32.6512 15.256 32.651 15.256 32.6508 15.256C32.6506 15.256 32.6504 15.256 32.6502 15.256C32.65 15.256 32.6498 15.256 32.6496 15.256C32.6494 15.256 32.6492 15.256 32.649 15.256C32.6488 15.256 32.6486 15.256 32.6484 15.256C32.6482 15.256 32.648 15.256 32.6478 15.256C32.6476 15.256 32.6474 15.256 32.6472 15.256C32.6471 15.256 32.6469 15.256 32.6467 15.256C32.6465 15.256 32.6463 15.256 32.6461 15.256C32.6459 15.256 32.6457 15.256 32.6455 15.256C32.6453 15.256 32.6451 15.256 32.6449 15.256C32.6447 15.256 32.6445 15.256 32.6443 15.256C32.6441 15.256 32.6439 15.256 32.6437 15.256C32.6435 15.256 32.6433 15.256 32.6431 15.256C32.6429 15.256 32.6427 15.256 32.6425 15.256C32.6423 15.256 32.6421 15.256 32.6419 15.256C32.6417 15.256 32.6415 15.256 32.6413 15.256C32.6411 15.256 32.6409 15.256 32.6407 15.256C32.6405 15.256 32.6403 15.256 32.6401 15.256C32.6399 15.256 32.6397 15.256 32.6395 15.256C32.6393 15.256 32.6391 15.256 32.6389 15.256C32.6387 15.256 32.6385 15.256 32.6383 15.256C32.6381 15.256 32.6379 15.256 32.6377 15.256C32.6375 15.256 32.6373 15.256 32.6371 15.256C32.6369 15.256 32.6367 15.256 32.6365 15.256C32.6363 15.256 32.6361 15.256 32.6359 15.256C32.6357 15.256 32.6355 15.256 32.6352 15.256C32.635 15.256 32.6348 15.256 32.6346 15.256C32.6344 15.256 32.6342 15.256 32.634 15.256C32.6338 15.256 32.6336 15.256 32.6334 15.256C32.6332 15.256 32.633 15.256 32.6328 15.256C32.6326 15.256 32.6324 15.256 32.6322 15.256C32.632 15.256 32.6318 15.256 32.6316 15.256C32.6314 15.256 32.6312 15.256 32.631 15.256C32.6308 15.256 32.6305 15.256 32.6303 15.256C32.6301 15.256 32.6299 15.256 32.6297 15.256C32.6295 15.256 32.6293 15.256 32.6291 15.256C32.6289 15.256 32.6287 15.256 32.6285 15.256C32.6283 15.256 32.6281 15.256 32.6279 15.256C32.6277 15.256 32.6275 15.256 32.6273 15.256C32.627 15.256 32.6268 15.256 32.6266 15.256C32.6264 15.256 32.6262 15.256 32.626 15.256C32.6258 15.256 32.6256 15.256 32.6254 15.256C32.6252 15.256 32.625 15.256 32.6248 15.256C32.6246 15.256 32.6243 15.256 32.6241 15.256C32.6239 15.256 32.6237 15.256 32.6235 15.256C32.6233 15.256 32.6231 15.256 32.6229 15.256C32.6227 15.256 32.6225 15.256 32.6223 15.256C32.622 15.256 32.6218 15.256 32.6216 15.256C32.6214 15.256 32.6212 15.256 32.621 15.256C32.6208 15.256 32.6206 15.256 32.6204 15.256C32.6202 15.256 32.6199 15.256 32.6197 15.256C32.6195 15.256 32.6193 15.256 32.6191 15.256C32.6189 15.256 32.6187 15.256 32.6185 15.256C32.6183 15.256 32.618 15.256 32.6178 15.256C32.6176 15.256 32.6174 15.256 32.6172 15.256C32.617 15.256 32.6168 15.256 32.6166 15.256C32.6163 15.256 32.6161 15.256 32.6159 15.256C32.6157 15.256 32.6155 15.256 32.6153 15.256C32.6151 15.256 32.6149 15.256 32.6146 15.256C32.6144 15.256 32.6142 15.256 32.614 15.256C32.6138 15.256 32.6136 15.256 32.6134 15.256C32.6132 15.256 32.6129 15.256 32.6127 15.256C32.6125 15.256 32.6123 15.256 32.6121 15.256C32.6119 15.256 32.6117 15.256 32.6114 15.256C32.6112 15.256 32.611 15.256 32.6108 15.256C32.6106 15.256 32.6104 15.256 32.6101 15.256C32.6099 15.256 32.6097 15.256 32.6095 15.256C32.6093 15.256 32.6091 15.256 32.6089 15.256C32.6086 15.256 32.6084 15.256 32.6082 15.256C32.608 15.256 32.6078 15.256 32.6076 15.256C32.6073 15.256 32.6071 15.256 32.6069 15.256C32.6067 15.256 32.6065 15.256 32.6063 15.256C32.606 15.256 32.6058 15.256 32.6056 15.256C32.6054 15.256 32.6052 15.256 32.605 15.256C32.6047 15.256 32.6045 15.256 32.6043 15.256C32.6041 15.256 32.6039 15.256 32.6036 15.256C32.6034 15.256 32.6032 15.256 32.603 15.256C32.6028 15.256 32.6026 15.256 32.6023 15.256C32.6021 15.256 32.6019 15.256 32.6017 15.256C32.6015 15.256 32.6012 15.256 32.601 15.256C32.6008 15.256 32.6006 15.256 32.6004 15.256C32.6001 15.256 32.5999 15.256 32.5997 15.256C32.5995 15.256 32.5993 15.256 32.599 15.256C32.5988 15.256 32.5986 15.256 32.5984 15.256C32.5982 15.256 32.5979 15.256 32.5977 15.256C32.5975 15.256 32.5973 15.256 32.597 15.256C32.5968 15.256 32.5966 15.256 32.5964 15.256C32.5962 15.256 32.5959 15.256 32.5957 15.256C32.5955 15.256 32.5953 15.256 32.5951 15.256C32.5948 15.256 32.5946 15.256 32.5944 15.256C32.5942 15.256 32.5939 15.256 32.5937 15.256C32.5935 15.256 32.5933 15.256 32.593 15.256C32.5928 15.256 32.5926 15.256 32.5924 15.256C32.5922 15.256 32.5919 15.256 32.5917 15.256C32.5915 15.256 32.5913 15.256 32.591 15.256C32.5908 15.256 32.5906 15.256 32.5904 15.256C32.5901 15.256 32.5899 15.256 32.5897 15.256C32.5895 15.256 32.5892 15.256 32.589 15.256C32.5888 15.256 32.5886 15.256 32.5883 15.256C32.5881 15.256 32.5879 15.256 32.5877 15.256C32.5874 15.256 32.5872 15.256 32.587 15.256C32.5868 15.256 32.5865 15.256 32.5863 15.256C32.5861 15.256 32.5859 15.256 32.5856 15.256C32.5854 15.256 32.5852 15.256 32.5849 15.256C32.5847 15.256 32.5845 15.256 32.5843 15.256C32.584 15.256 32.5838 15.256 32.5836 15.256C32.5834 15.256 32.5831 15.256 32.5829 15.256C32.5827 15.256 32.5824 15.256 32.5822 15.256C32.582 15.256 32.5818 15.256 32.5815 15.256C32.5813 15.256 32.5811 15.256 32.5808 15.256C32.5806 15.256 32.5804 15.256 32.5802 15.256C32.5799 15.256 32.5797 15.256 32.5795 15.256C32.5792 15.256 32.579 15.256 32.5788 15.256C32.5786 15.256 32.5783 15.256 32.5781 15.256C32.5779 15.256 32.5776 15.256 32.5774 15.256C32.5772 15.256 32.5769 15.256 32.5767 15.256C32.5765 15.256 32.5763 15.256 32.576 15.256C32.5758 15.256 32.5756 15.256 32.5753 15.256C32.5751 15.256 32.5749 15.256 32.5746 15.256C32.5744 15.256 32.5742 15.256 32.5739 15.256C32.5737 15.256 32.5735 15.256 32.5732 15.256C32.573 15.256 32.5728 15.256 32.5725 15.256C32.5723 15.256 32.5721 15.256 32.5718 15.256C32.5716 15.256 32.5714 15.256 32.5712 15.256C32.5709 15.256 32.5707 15.256 32.5705 15.256C32.5702 15.256 32.57 15.256 32.5698 15.256C32.5695 15.256 32.5693 15.256 32.569 15.256C32.5688 15.256 32.5686 15.256 32.5683 15.256C32.5681 15.256 32.5679 15.256 32.5676 15.256C32.5674 15.256 32.5672 15.256 32.5669 15.256C32.5667 15.256 32.5665 15.256 32.5662 15.256C32.566 15.256 32.5658 15.256 32.5655 15.256C32.5653 15.256 32.5651 15.256 32.5648 15.256C32.5646 15.256 32.5644 15.256 32.5641 15.256C32.5639 15.256 32.5636 15.256 32.5634 15.256C32.5632 15.256 32.5629 15.256 32.5627 15.256C32.5625 15.256 32.5622 15.256 32.562 15.256C32.5617 15.256 32.5615 15.256 32.5613 15.256C32.561 15.256 32.5608 15.256 32.5606 15.256C32.5603 15.256 32.5601 15.256 32.5599 15.256C32.5596 15.256 32.5594 15.256 32.5591 15.256C32.5589 15.256 32.5587 15.256 32.5584 15.256C32.5582 15.256 32.5579 15.256 32.5577 15.256C32.5575 15.256 32.5572 15.256 32.557 15.256C32.5567 15.256 32.5565 15.256 32.5563 15.256C32.556 15.256 32.5558 15.256 32.5556 15.256C32.5553 15.256 32.5551 15.256 32.5548 15.256C32.5546 15.256 32.5544 15.256 32.5541 15.256C32.5539 15.256 32.5536 15.256 32.5534 15.256C32.5532 15.256 32.5529 15.256 32.5527 15.256C32.5524 15.256 32.5522 15.256 32.5519 15.256C32.5517 15.256 32.5515 15.256 32.5512 15.256C32.551 15.256 32.5507 15.256 32.5505 15.256C32.5503 15.256 32.55 15.256 32.5498 15.256C32.5495 15.256 32.5493 15.256 32.549 15.256C32.5488 15.256 32.5486 15.256 32.5483 15.256C32.5481 15.256 32.5478 15.256 32.5476 15.256C32.5473 15.256 32.5471 15.256 32.5469 15.256C32.5466 15.256 32.5464 15.256 32.5461 15.256C32.5459 15.256 32.5456 15.256 32.5454 15.256C32.5452 15.256 32.5449 15.256 32.5447 15.256C32.5444 15.256 32.5442 15.256 32.5439 15.256C32.5437 15.256 32.5434 15.256 32.5432 15.256C32.543 15.256 32.5427 15.256 32.5425 15.256C32.5422 15.256 32.542 15.256 32.5417 15.256C32.5415 15.256 32.5412 15.256 32.541 15.256C32.5407 15.256 32.5405 15.256 32.5403 15.256C32.54 15.256 32.5398 15.256 32.5395 15.256C32.5393 15.256 32.539 15.256 32.5388 15.256C32.5385 15.256 32.5383 15.256 32.538 15.256C32.5378 15.256 32.5375 15.256 32.5373 15.256C32.537 15.256 32.5368 15.256 32.5365 15.256C32.5363 15.256 32.5361 15.256 32.5358 15.256C32.5356 15.256 32.5353 15.256 32.5351 15.256C32.5348 15.256 32.5346 15.256 32.5343 15.256C32.5341 15.256 32.5338 15.256 32.5336 15.256C32.5333 15.256 32.5331 15.256 32.5328 15.256C32.5326 15.256 32.5323 15.256 32.5321 15.256C32.5318 15.256 32.5316 15.256 32.5313 15.256C32.5311 15.256 32.5308 15.256 32.5306 15.256C32.5303 15.256 32.5301 15.256 32.5298 15.256C32.5296 15.256 32.5293 15.256 32.5291 15.256C32.5288 15.256 32.5286 15.256 32.5283 15.256C32.5281 15.256 32.5278 15.256 32.5276 15.256C32.5273 15.256 32.5271 15.256 32.5268 15.256C32.5266 15.256 32.5263 15.256 32.5261 15.256C32.5258 15.256 32.5256 15.256 32.5253 15.256C32.525 15.256 32.5248 15.256 32.5245 15.256C32.5243 15.256 32.524 15.256 32.5238 15.256C32.5235 15.256 32.5233 15.256 32.523 15.256C32.5228 15.256 32.5225 15.256 32.5223 15.256C32.522 15.256 32.5218 15.256 32.5215 15.256C32.5213 15.256 32.521 15.256 32.5207 15.256C32.5205 15.256 32.5202 15.256 32.52 15.256C32.5197 15.256 32.5195 15.256 32.5192 15.256C32.519 15.256 32.5187 15.256 32.5185 15.256C32.5182 15.256 32.5179 15.256 32.5177 15.256C32.5174 15.256 32.5172 15.256 32.5169 15.256C32.5167 15.256 32.5164 15.256 32.5162 15.256C32.5159 15.256 32.5156 15.256 32.5154 15.256C32.5151 15.256 32.5149 15.256 32.5146 15.256C32.5144 15.256 32.5141 15.256 32.5138 15.256C32.5136 15.256 32.5133 15.256 32.5131 15.256C32.5128 15.256 32.5126 15.256 32.5123 15.256C32.512 15.256 32.5118 15.256 32.5115 15.256C32.5113 15.256 32.511 15.256 32.5108 15.256C32.5105 15.256 32.5102 15.256 32.51 15.256C32.5097 15.256 32.5095 15.256 32.5092 15.256C32.509 15.256 32.5087 15.256 32.5084 15.256C32.5082 15.256 32.5079 15.256 32.5077 15.256C32.5074 15.256 32.5071 15.256 32.5069 15.256C32.5066 15.256 32.5064 15.256 32.5061 15.256C32.5058 15.256 32.5056 15.256 32.5053 15.256C32.5051 15.256 32.5048 15.256 32.5045 15.256C32.5043 15.256 32.504 15.256 32.5038 15.256C32.5035 15.256 32.5032 15.256 32.503 15.256C32.5027 15.256 32.5025 15.256 32.5022 15.256C32.5019 15.256 32.5017 15.256 32.5014 15.256C32.5011 15.256 32.5009 15.256 32.5006 15.256C32.5004 15.256 32.5001 15.256 32.4998 15.256C32.4996 15.256 32.4993 15.256 32.499 15.256C32.4988 15.256 32.4985 15.256 32.4983 15.256C32.498 15.256 32.4977 15.256 32.4975 15.256C32.4972 15.256 32.4969 15.256 32.4967 15.256C32.4964 15.256 32.4962 15.256 32.4959 15.256C32.4956 15.256 32.4954 15.256 32.4951 15.256C32.4948 15.256 32.4946 15.256 32.4943 15.256C32.494 15.256 32.4938 15.256 32.4935 15.256C32.4932 15.256 32.493 15.256 32.4927 15.256C32.4925 15.256 32.4922 15.256 32.4919 15.256C32.4917 15.256 32.4914 15.256 32.4911 15.256C32.4909 15.256 32.4906 15.256 32.4903 15.256C32.4901 15.256 32.4898 15.256 32.4895 15.256C32.4893 15.256 32.489 15.256 32.4887 15.256C32.4885 15.256 32.4882 15.256 32.4879 15.256C32.4877 15.256 32.4874 15.256 32.4871 15.256C32.4869 15.256 32.4866 15.256 32.4863 15.256C32.4861 15.256 32.4858 15.256 32.4855 15.256C32.4853 15.256 32.485 15.256 32.4847 15.256C32.4845 15.256 32.4842 15.256 32.4839 15.256C32.4836 15.256 32.4834 15.256 32.4831 15.256C32.4828 15.256 32.4826 15.256 32.4823 15.256C32.482 15.256 32.4818 15.256 32.4815 15.256C32.4812 15.256 32.481 15.256 32.4807 15.256C32.4804 15.256 32.4801 15.256 32.4799 15.256C32.4796 15.256 32.4793 15.256 32.4791 15.256C32.4788 15.256 32.4785 15.256 32.4783 15.256C32.478 15.256 32.4777 15.256 32.4774 15.256C32.4772 15.256 32.4769 15.256 32.4766 15.256C32.4764 15.256 32.4761 15.256 32.4758 15.256C32.4755 15.256 32.4753 15.256 32.475 15.256C32.4747 15.256 32.4745 15.256 32.4742 15.256C32.4739 15.256 32.4736 15.256 32.4734 15.256C32.4731 15.256 32.4728 15.256 32.4726 15.256C32.4723 15.256 32.472 15.256 32.4717 15.256C32.4715 15.256 32.4712 15.256 32.4709 15.256C32.4706 15.256 32.4704 15.256 32.4701 15.256C32.4698 15.256 32.4695 15.256 32.4693 15.256C32.469 15.256 32.4687 15.256 32.4685 15.256C32.4682 15.256 32.4679 15.256 32.4676 15.256C32.4674 15.256 32.4671 15.256 32.4668 15.256C32.4665 15.256 32.4663 15.256 32.466 15.256C32.4657 15.256 32.4654 15.256 32.4652 15.256C32.4649 15.256 32.4646 15.256 32.4643 15.256C32.4641 15.256 32.4638 15.256 32.4635 15.256C32.4632 15.256 32.463 15.256 32.4627 15.256C32.4624 15.256 32.4621 15.256 32.4618 15.256C32.4616 15.256 32.4613 15.256 32.461 15.256C32.4607 15.256 32.4605 15.256 32.4602 15.256C32.4599 15.256 32.4596 15.256 32.4594 15.256C32.4591 15.256 32.4588 15.256 32.4585 15.256C32.4582 15.256 32.458 15.256 32.4577 15.256C32.4574 15.256 32.4571 15.256 32.4568 15.256C32.4566 15.256 32.4563 15.256 32.456 15.256C32.4557 15.256 32.4555 15.256 32.4552 15.256C32.4549 15.256 32.4546 15.256 32.4543 15.256C32.4541 15.256 32.4538 15.256 32.4535 15.256C32.4532 15.256 32.4529 15.256 32.4527 15.256C32.4524 15.256 32.4521 15.256 32.4518 15.256C32.4515 15.256 32.4513 15.256 32.451 15.256C32.4507 15.256 32.4504 15.256 32.4501 15.256C32.4499 15.256 32.4496 15.256 32.4493 15.256C32.449 15.256 32.4487 15.256 32.4485 15.256C32.4482 15.256 32.4479 15.256 32.4476 15.256C32.4473 15.256 32.447 15.256 32.4468 15.256C32.4465 15.256 32.4462 15.256 32.4459 15.256C32.4456 15.256 32.4453 15.256 32.4451 15.256C32.4448 15.256 32.4445 15.256 32.4442 15.256C32.4439 15.256 32.4437 15.256 32.4434 15.256C32.4431 15.256 32.4428 15.256 32.4425 15.256C32.4422 15.256 32.4419 15.256 32.4417 15.256C32.4414 15.256 32.4411 15.256 32.4408 15.256C32.4405 15.256 32.4402 15.256 32.44 15.256C32.4397 15.256 32.4394 15.256 32.4391 15.256C32.4388 15.256 32.4385 15.256 32.4383 15.256C32.438 15.256 32.4377 15.256 32.4374 15.256C32.4371 15.256 32.4368 15.256 32.4365 15.256C32.4363 15.256 32.436 15.256 32.4357 15.256C32.4354 15.256 32.4351 15.256 32.4348 15.256C32.4345 15.256 32.4342 15.256 32.434 15.256C32.4337 15.256 32.4334 15.256 32.4331 15.256C32.4328 15.256 32.4325 15.256 32.4322 15.256C32.432 15.256 32.4317 15.256 32.4314 15.256C32.4311 15.256 32.4308 15.256 32.4305 15.256C32.4302 15.256 32.4299 15.256 32.4296 15.256C32.4294 15.256 32.4291 15.256 32.4288 15.256C32.4285 15.256 32.4282 15.256 32.4279 15.256C32.4276 15.256 32.4273 15.256 32.4271 15.256C32.4268 15.256 32.4265 15.256 32.4262 15.256C32.4259 15.256 32.4256 15.256 32.4253 15.256C32.425 15.256 32.4247 15.256 32.4244 15.256C32.4242 15.256 32.4239 15.256 32.4236 15.256C32.4233 15.256 32.423 15.256 32.4227 15.256C32.4224 15.256 32.4221 15.256 32.4218 15.256C32.4215 15.256 32.4212 15.256 32.421 15.256C32.4207 15.256 32.4204 15.256 32.4201 15.256C32.4198 15.256 32.4195 15.256 32.4192 15.256C32.4189 15.256 32.4186 15.256 32.4183 15.256C32.418 15.256 32.4177 15.256 32.4175 15.256C32.4172 15.256 32.4169 15.256 32.4166 15.256C32.4163 15.256 32.416 15.256 32.4157 15.256C32.4154 15.256 32.4151 15.256 32.4148 15.256C32.4145 15.256 32.4142 15.256 32.4139 15.256C32.4136 15.256 32.4134 15.256 32.4131 15.256C32.4128 15.256 32.4125 15.256 32.4122 15.256C32.4119 15.256 32.4116 15.256 32.4113 15.256C32.411 15.256 32.4107 15.256 32.4104 15.256C32.4101 15.256 32.4098 15.256 32.4095 15.256C32.4092 15.256 32.4089 15.256 32.4086 15.256C32.4083 15.256 32.408 15.256 32.4077 15.256C32.4075 15.256 32.4072 15.256 32.4069 15.256C32.4066 15.256 32.4063 15.256 32.406 15.256C32.4057 15.256 32.4054 15.256 32.4051 15.256C32.4048 15.256 32.4045 15.256 32.4042 15.256C32.4039 15.256 32.4036 15.256 32.4033 15.256C32.403 15.256 32.4027 15.256 32.4024 15.256C32.4021 15.256 32.4018 15.256 32.4015 15.256C32.4012 15.256 32.4009 15.256 32.4006 15.256C32.4003 15.256 32.4 15.256 32.3997 15.256C32.3994 15.256 32.3991 15.256 32.3988 15.256C32.3985 15.256 32.3982 15.256 32.3979 15.256C32.3976 15.256 32.3973 15.256 32.397 15.256C32.3967 15.256 32.3964 15.256 32.3961 15.256C32.3958 15.256 32.3955 15.256 32.3952 15.256C32.3949 15.256 32.3946 15.256 32.3943 15.256C32.394 15.256 32.3937 15.256 32.3934 15.256C32.3931 15.256 32.3928 15.256 32.3925 15.256C32.3922 15.256 32.3919 15.256 32.3916 15.256C32.3913 15.256 32.391 15.256 32.3907 15.256C32.3904 15.256 32.3901 15.256 32.3898 15.256C32.3895 15.256 32.3892 15.256 32.3889 15.256C32.3886 15.256 32.3883 15.256 32.388 15.256C32.3877 15.256 32.3874 15.256 32.3871 15.256C32.3868 15.256 32.3865 15.256 32.3862 15.256C32.3859 15.256 32.3856 15.256 32.3853 15.256C32.385 15.256 32.3847 15.256 32.3844 15.256C32.3841 15.256 32.3838 15.256 32.3835 15.256C32.3831 15.256 32.3828 15.256 32.3825 15.256C32.3822 15.256 32.3819 15.256 32.3816 15.256C32.3813 15.256 32.381 15.256 32.3807 15.256C32.3804 15.256 32.3801 15.256 32.3798 15.256C32.3795 15.256 32.3792 15.256 32.3789 15.256C32.3786 15.256 32.3783 15.256 32.378 15.256C32.3777 15.256 32.3773 15.256 32.377 15.256C32.3767 15.256 32.3764 15.256 32.3761 15.256C32.3758 15.256 32.3755 15.256 32.3752 15.256C32.3749 15.256 32.3746 15.256 32.3743 15.256C32.374 15.256 32.3737 15.256 32.3734 15.256C32.3731 15.256 32.3727 15.256 32.3724 15.256C32.3721 15.256 32.3718 15.256 32.3715 15.256C32.3712 15.256 32.3709 15.256 32.3706 15.256C32.3703 15.256 32.37 15.256 32.3697 15.256C32.3694 15.256 32.369 15.256 32.3687 15.256C32.3684 15.256 32.3681 15.256 32.3678 15.256C32.3675 15.256 32.3672 15.256 32.3669 15.256C32.3666 15.256 32.3663 15.256 32.366 15.256C32.3656 15.256 32.3653 15.256 32.365 15.256C32.3647 15.256 32.3644 15.256 32.3641 15.256C32.3638 15.256 32.3635 15.256 32.3632 15.256C32.3629 15.256 32.3625 15.256 32.3622 15.256C32.3619 15.256 32.3616 15.256 32.3613 15.256C32.361 15.256 32.3607 15.256 32.3604 15.256C32.36 15.256 32.3597 15.256 32.3594 15.256C32.3591 15.256 32.3588 15.256 32.3585 15.256C32.3582 15.256 32.3579 15.256 32.3576 15.256C32.3572 15.256 32.3569 15.256 32.3566 15.256C32.3563 15.256 32.356 15.256 32.3557 15.256C32.3554 15.256 32.355 15.256 32.3547 15.256C32.3544 15.256 32.3541 15.256 32.3538 15.256C32.3535 15.256 32.3532 15.256 32.3528 15.256C32.3525 15.256 32.3522 15.256 32.3519 15.256C32.3516 15.256 32.3513 15.256 32.351 15.256C32.3506 15.256 32.3503 15.256 32.35 15.256C32.3497 15.256 32.3494 15.256 32.3491 15.256C32.3488 15.256 32.3484 15.256 32.3481 15.256C32.3478 15.256 32.3475 15.256 32.3472 15.256C32.3469 15.256 32.3465 15.256 32.3462 15.256C32.3459 15.256 32.3456 15.256 32.3453 15.256C32.345 15.256 32.3446 15.256 32.3443 15.256C32.344 15.256 32.3437 15.256 32.3434 15.256C32.3431 15.256 32.3427 15.256 32.3424 15.256C32.3421 15.256 32.3418 15.256 32.3415 15.256C32.3412 15.256 32.3408 15.256 32.3405 15.256C32.3402 15.256 32.3399 15.256 32.3396 15.256C32.3392 15.256 32.3389 15.256 32.3386 15.256C32.3383 15.256 32.338 15.256 32.3377 15.256C32.3373 15.256 32.337 15.256 32.3367 15.256C32.3364 15.256 32.3361 15.256 32.3357 15.256C32.3354 15.256 32.3351 15.256 32.3348 15.256C32.3345 15.256 32.3341 15.256 32.3338 15.256C32.3335 15.256 32.3332 15.256 32.3329 15.256C32.3325 15.256 32.3322 15.256 32.3319 15.256C32.3316 15.256 32.3313 15.256 32.3309 15.256C32.3306 15.256 32.3303 15.256 32.33 15.256C32.3296 15.256 32.3293 15.256 32.329 15.256C32.3287 15.256 32.3284 15.256 32.328 15.256C32.3277 15.256 32.3274 15.256 32.3271 15.256C32.3267 15.256 32.3264 15.256 32.3261 15.256C32.3258 15.256 32.3255 15.256 32.3251 15.256C32.3248 15.256 32.3245 15.256 32.3242 15.256C32.3238 15.256 32.3235 15.256 32.3232 15.256C32.3229 15.256 32.3225 15.256 32.3222 15.256C32.3219 15.256 32.3216 15.256 32.3213 15.256C32.3209 15.256 32.3206 15.256 32.3203 15.256C32.32 15.256 32.3196 15.256 32.3193 15.256C32.319 15.256 32.3187 15.256 32.3183 15.256C32.318 15.256 32.3177 15.256 32.3174 15.256C32.317 15.256 32.3167 15.256 32.3164 15.256C32.316 15.256 32.3157 15.256 32.3154 15.256C32.3151 15.256 32.3147 15.256 32.3144 15.256C32.3141 15.256 32.3138 15.256 32.3134 15.256C32.3131 15.256 32.3128 15.256 32.3125 15.256C32.3121 15.256 32.3118 15.256 32.3115 15.256C32.3112 15.256 32.3108 15.256 32.3105 15.256C32.3102 15.256 32.3098 15.256 32.3095 15.256C32.3092 15.256 32.3089 15.256 32.3085 15.256C32.3082 15.256 32.3079 15.256 32.3075 15.256C32.3072 15.256 32.3069 15.256 32.3066 15.256C32.3062 15.256 32.3059 15.256 32.3056 15.256C32.3052 15.256 32.3049 15.256 32.3046 15.256C32.3043 15.256 32.3039 15.256 32.3036 15.256C32.3033 15.256 32.3029 15.256 32.3026 15.256C32.3023 15.256 32.3019 15.256 32.3016 15.256C32.3013 15.256 32.301 15.256 32.3006 15.256C32.3003 15.256 32.3 15.256 32.2996 15.256C32.2993 15.256 32.299 15.256 32.2986 15.256C32.2983 15.256 32.298 15.256 32.2976 15.256C32.2973 15.256 32.297 15.256 32.2966 15.256C32.2963 15.256 32.296 15.256 32.2957 15.256C32.2953 15.256 32.295 15.256 32.2947 15.256C32.2943 15.256 32.294 15.256 32.2937 15.256C32.2933 15.256 32.293 15.256 32.2927 15.256C32.2923 15.256 32.292 15.256 32.2917 15.256C32.2913 15.256 32.291 15.256 32.2907 15.256C32.2903 15.256 32.29 15.256 32.2897 15.256C32.2893 15.256 32.289 15.256 32.2887 15.256C32.2883 15.256 32.288 15.256 32.2877 15.256C32.2873 15.256 32.287 15.256 32.2866 15.256C32.2863 15.256 32.286 15.256 32.2856 15.256C32.2853 15.256 32.285 15.256 32.2846 15.256C32.2843 15.256 32.284 15.256 32.2836 15.256C32.2833 15.256 32.283 15.256 32.2826 15.256C32.2823 15.256 32.2819 15.256 32.2816 15.256C32.2813 15.256 32.2809 15.256 32.2806 15.256C32.2803 15.256 32.2799 15.256 32.2796 15.256C32.2793 15.256 32.2789 15.256 32.2786 15.256C32.2782 15.256 32.2779 15.256 32.2776 15.256C32.2772 15.256 32.2769 15.256 32.2766 15.256C32.2762 15.256 32.2759 15.256 32.2755 15.256C32.2752 15.256 32.2749 15.256 32.2745 15.256C32.2742 15.256 32.2738 15.256 32.2735 15.256C32.2732 15.256 32.2728 15.256 32.2725 15.256C32.2722 15.256 32.2718 15.256 32.2715 15.256C32.2711 15.256 32.2708 15.256 32.2705 15.256C32.2701 15.256 32.2698 15.256 32.2694 15.256C32.2691 15.256 32.2688 15.256 32.2684 15.256C32.2681 15.256 32.2677 15.256 32.2674 15.256C32.2671 15.256 32.2667 15.256 32.2664 15.256C32.266 15.256 32.2657 15.256 32.2653 15.256C32.265 15.256 32.2647 15.256 32.2643 15.256C32.264 15.256 32.2636 15.256 32.2633 15.256C32.263 15.256 32.2626 15.256 32.2623 15.256C32.2619 15.256 32.2616 15.256 32.2612 15.256C32.2609 15.256 32.2606 15.256 32.2602 15.256C32.2599 15.256 32.2595 15.256 32.2592 15.256C32.2588 15.256 32.2585 15.256 32.2582 15.256C32.2578 15.256 32.2575 15.256 32.2571 15.256V17.256ZM32.6651 17.256C32.686 17.256 32.6963 17.2569 32.6976 17.257C32.6981 17.2571 32.6953 17.2568 32.6897 17.2559C32.6842 17.255 32.675 17.2532 32.6626 17.2501L33.1477 15.3099C32.9774 15.2673 32.8094 15.256 32.6651 15.256V17.256ZM31.9051 16.28V19.208H33.9051V16.28H31.9051Z" fill="#1E293B"/>
</svg>
